{
  "source": "C:\\Users\\Peter\\Desktop\\stuff\\MIUN\\quantitative_research\\video_compression\\videos\\BVI-HD\\BVI-HD_CDVL_videos\\ORIG\\MartialArts_1920x1080_60fps.mp4",
  "output": "C:\\Users\\Peter\\Desktop\\stuff\\MIUN\\quantitative_research\\video_compression\\compressed_videos\\BVI-HD\\vp9\\3\\MartialArts_1920x1080_60fps_vp9.webm",
  "codec": "vp9",
  "ok": "Input #0, mov,mp4,m4a,3gp,3g2,mj2, from 'C:\\Users\\Peter\\Desktop\\stuff\\MIUN\\quantitative_research\\video_compression\\videos\\BVI-HD\\BVI-HD_CDVL_videos\\ORIG\\MartialArts_1920x1080_60fps.mp4':\n  Metadata:\n    major_brand     : isom\n    minor_version   : 512\n    compatible_brands: isomiso2avc1mp41\n    encoder         : Lavf54.28.101\n  Duration: 00:00:05.00, start: 0.000000, bitrate: 120609 kb/s\n  Stream #0:0[0x1](und): Video: h264 (High 4:4:4 Predictive) (avc1 / 0x31637661), yuv420p(progressive), 1920x1080, 120605 kb/s, 60 fps, 60 tbr, 60 tbn (default)\n    Metadata:\n      handler_name    : VideoHandler\n      vendor_id       : [0][0][0][0]\n[out#0/webm @ 000001cb931a8f80] Codec AVOption b:a (set bitrate (in bits/s)) has not been used for any stream. The most likely reason is either wrong type (e.g. a video option with no video streams) or that it is a private option of some decoder which was not actually used for any stream.\nStream mapping:\n  Stream #0:0 -> #0:0 (h264 (native) -> vp9 (libvpx-vp9))\nPress [q] to stop, [?] for help\n[libvpx-vp9 @ 000001cb94db05c0] v1.15.2-100-g40561f514\nOutput #0, webm, to 'C:\\Users\\Peter\\Desktop\\stuff\\MIUN\\quantitative_research\\video_compression\\compressed_videos\\BVI-HD\\vp9\\3\\MartialArts_1920x1080_60fps_vp9.webm':\n  Metadata:\n    major_brand     : isom\n    minor_version   : 512\n    compatible_brands: isomiso2avc1mp41\n    encoder         : Lavf62.3.100\n  Stream #0:0(und): Video: vp9, yuv420p(tv, progressive), 1920x1080, q=2-31, 3000 kb/s, 60 fps, 1k tbn (default)\n    Metadata:\n      encoder         : Lavc62.11.100 libvpx-vp9\n      handler_name    : VideoHandler\n      vendor_id       : [0][0][0][0]\n    Side data:\n      cpb: bitrate max/min/avg: 0/0/0 buffer size: 3000000 vbv_delay: N/A\nframe=    3 fps=0.0 q=57.0 size=       1KiB time=00:00:00.05 bitrate= 101.3kbits/s speed=0.0949x elapsed=0:00:00.52    \nframe=   11 fps= 11 q=29.0 size=       1KiB time=00:00:00.18 bitrate=  27.6kbits/s speed=0.176x elapsed=0:00:01.04    \nframe=   17 fps= 11 q=25.0 size=       1KiB time=00:00:00.28 bitrate=  17.9kbits/s speed=0.182x elapsed=0:00:01.55    \nframe=   24 fps= 11 q=25.0 size=       1KiB time=00:00:00.40 bitrate=  12.7kbits/s speed=0.19x elapsed=0:00:02.10    \nframe=   30 fps= 11 q=25.0 size=       1KiB time=00:00:00.50 bitrate=  10.1kbits/s speed=0.188x elapsed=0:00:02.65    \nframe=   36 fps= 11 q=27.0 size=       1KiB time=00:00:00.60 bitrate=   8.4kbits/s speed=0.189x elapsed=0:00:03.17    \nframe=   44 fps= 12 q=28.0 size=       1KiB time=00:00:00.73 bitrate=   6.9kbits/s speed=0.198x elapsed=0:00:03.69    \nframe=   51 fps= 12 q=29.0 size=       1KiB time=00:00:00.85 bitrate=   6.0kbits/s speed=0.201x elapsed=0:00:04.22    \nframe=   58 fps= 12 q=32.0 size=       1KiB time=00:00:00.96 bitrate=   5.2kbits/s speed=0.204x elapsed=0:00:04.73    \nframe=   65 fps= 12 q=31.0 size=       1KiB time=00:00:01.08 bitrate=   4.7kbits/s speed=0.206x elapsed=0:00:05.27    \nframe=   72 fps= 12 q=31.0 size=       1KiB time=00:00:01.20 bitrate=   4.2kbits/s speed=0.207x elapsed=0:00:05.80    \nframe=   79 fps= 13 q=30.0 size=       1KiB time=00:00:01.31 bitrate=   3.8kbits/s speed=0.209x elapsed=0:00:06.31    \nframe=   86 fps= 13 q=31.0 size=       1KiB time=00:00:01.43 bitrate=   3.5kbits/s speed=0.21x elapsed=0:00:06.83    \nframe=   94 fps= 13 q=30.0 size=       1KiB time=00:00:01.56 bitrate=   3.2kbits/s speed=0.213x elapsed=0:00:07.34    \nframe=  101 fps= 13 q=27.0 size=       1KiB time=00:00:01.68 bitrate=   3.0kbits/s speed=0.214x elapsed=0:00:07.87    \nframe=  108 fps= 13 q=29.0 size=       1KiB time=00:00:01.80 bitrate=   2.8kbits/s speed=0.214x elapsed=0:00:08.40    \nframe=  116 fps= 13 q=28.0 size=       1KiB time=00:00:01.93 bitrate=   2.6kbits/s speed=0.216x elapsed=0:00:08.94    \nframe=  123 fps= 13 q=27.0 size=       1KiB time=00:00:02.05 bitrate=   2.5kbits/s speed=0.217x elapsed=0:00:09.45    \nframe=  131 fps= 13 q=25.0 size=     512KiB time=00:00:02.18 bitrate=1921.1kbits/s speed=0.219x elapsed=0:00:09.96    \nframe=  139 fps= 13 q=26.0 size=     512KiB time=00:00:02.31 bitrate=1810.5kbits/s speed=0.221x elapsed=0:00:10.49    \nframe=  146 fps= 13 q=27.0 size=     512KiB time=00:00:02.43 bitrate=1723.7kbits/s speed=0.221x elapsed=0:00:11.01    \nframe=  153 fps= 13 q=28.0 size=     512KiB time=00:00:02.55 bitrate=1644.8kbits/s speed=0.221x elapsed=0:00:11.53    \nframe=  161 fps= 13 q=30.0 size=     512KiB time=00:00:02.68 bitrate=1563.1kbits/s speed=0.223x elapsed=0:00:12.04    \nframe=  167 fps= 13 q=32.0 size=     512KiB time=00:00:02.78 bitrate=1506.9kbits/s speed=0.221x elapsed=0:00:12.56    \nframe=  174 fps= 13 q=34.0 size=     512KiB time=00:00:02.90 bitrate=1446.3kbits/s speed=0.221x elapsed=0:00:13.10    \nframe=  180 fps= 13 q=34.0 size=     512KiB time=00:00:03.00 bitrate=1398.1kbits/s speed=0.22x elapsed=0:00:13.66    \nframe=  184 fps= 13 q=35.0 size=     512KiB time=00:00:03.06 bitrate=1367.7kbits/s speed=0.216x elapsed=0:00:14.22    \nframe=  188 fps= 13 q=20.0 size=     512KiB time=00:00:03.13 bitrate=1338.6kbits/s speed=0.212x elapsed=0:00:14.76    \nframe=  194 fps= 13 q=33.0 size=     512KiB time=00:00:03.23 bitrate=1297.2kbits/s speed=0.211x elapsed=0:00:15.29    \nframe=  199 fps= 13 q=32.0 size=     512KiB time=00:00:03.31 bitrate=1264.6kbits/s speed=0.209x elapsed=0:00:15.83    \nframe=  207 fps= 13 q=31.0 size=     512KiB time=00:00:03.45 bitrate=1215.7kbits/s speed=0.211x elapsed=0:00:16.36    \nframe=  213 fps= 13 q=32.0 size=     512KiB time=00:00:03.55 bitrate=1181.5kbits/s speed=0.21x elapsed=0:00:16.88    \nframe=  220 fps= 13 q=31.0 size=     512KiB time=00:00:03.66 bitrate=1143.9kbits/s speed=0.211x elapsed=0:00:17.40    \nframe=  225 fps= 13 q=31.0 size=     512KiB time=00:00:03.75 bitrate=1118.5kbits/s speed=0.209x elapsed=0:00:17.96    \nframe=  231 fps= 12 q=29.0 size=     512KiB time=00:00:03.85 bitrate=1089.4kbits/s speed=0.208x elapsed=0:00:18.51    \nframe=  236 fps= 12 q=15.0 size=     512KiB time=00:00:03.91 bitrate=1070.9kbits/s speed=0.206x elapsed=0:00:19.04    \nframe=  241 fps= 12 q=28.0 size=     512KiB time=00:00:04.01 bitrate=1044.2kbits/s speed=0.205x elapsed=0:00:19.60    \nframe=  246 fps= 12 q=15.0 size=     512KiB time=00:00:04.10 bitrate=1023.0kbits/s speed=0.204x elapsed=0:00:20.12    \nframe=  253 fps= 12 q=30.0 size=     512KiB time=00:00:04.21 bitrate= 994.7kbits/s speed=0.204x elapsed=0:00:20.65    \nframe=  257 fps= 12 q=15.0 size=     512KiB time=00:00:04.28 bitrate= 979.2kbits/s speed=0.202x elapsed=0:00:21.24    \nframe=  263 fps= 12 q=31.0 size=    1280KiB time=00:00:04.38 bitrate=2392.2kbits/s speed=0.201x elapsed=0:00:21.78    \nframe=  268 fps= 12 q=30.0 size=    1280KiB time=00:00:04.46 bitrate=2347.6kbits/s speed= 0.2x elapsed=0:00:22.31    \nframe=  273 fps= 12 q=30.0 size=    1280KiB time=00:00:04.55 bitrate=2304.6kbits/s speed=0.199x elapsed=0:00:22.84    \nframe=  276 fps= 12 q=31.0 size=    1280KiB time=00:00:04.60 bitrate=2279.5kbits/s speed=0.197x elapsed=0:00:23.36    \nframe=  276 fps= 12 q=31.0 size=    1280KiB time=00:00:04.60 bitrate=2279.5kbits/s speed=0.193x elapsed=0:00:23.88    \nframe=  276 fps= 11 q=31.0 size=    1280KiB time=00:00:04.60 bitrate=2279.5kbits/s speed=0.188x elapsed=0:00:24.43    \nframe=  276 fps= 11 q=31.0 size=    1280KiB time=00:00:04.60 bitrate=2279.5kbits/s speed=0.184x elapsed=0:00:25.01    \nframe=  276 fps= 11 q=31.0 size=    1280KiB time=00:00:04.60 bitrate=2279.5kbits/s speed=0.18x elapsed=0:00:25.55    \n[out#0/webm @ 000001cb931a8f80] video:1762KiB audio:0KiB subtitle:0KiB other streams:0KiB global headers:0KiB muxing overhead: 0.157925%\nframe=  300 fps= 12 q=34.0 Lsize=    1765KiB time=00:00:05.00 bitrate=2892.0kbits/s speed=0.195x elapsed=0:00:25.59    \n",
  "seconds": 26.006826639175415,
  "probe_out": {}
}